<?xml version="1.0" encoding="UTF-8" standalone="no"?>
<svg
   xmlns:svg="http://www.w3.org/2000/svg"
   xmlns="http://www.w3.org/2000/svg"
   xmlns:sodipodi="http://sodipodi.sourceforge.net/DTD/sodipodi-0.dtd"
   xmlns:inkscape="http://www.inkscape.org/namespaces/inkscape"
   width="{{width}}"
   height="{{height}}"
   viewBox="0 0 100 100"
   version="1.1"
   id="svg8">
  <defs
     id="defs2" />
  <g
     id="layer1"
     transform="translate(-19.796999,-147.6851)">
    <path
       id="path835"
       style="opacity:0.997;fill:none;fill-opacity:1;stroke:#000000;stroke-width:0.821072;stroke-opacity:1;stop-color:#000000"
       d="m 116.99395,558.59046 c -24.286755,0.98981 -48.896901,28.89755 -39.841109,53.86604 13.806224,25.19438 41.377949,9.29138 54.780749,1.70561 4.75616,39.47682 0.17194,86.10951 26.5344,105.66189 -4.28666,15.38232 -9.13736,32.98336 -14.12829,51.13602 h 16.96387 l 12.56416,-43.03412 c 2.47716,0.95286 5.04112,1.79977 7.67663,2.53572 l 12.11041,40.4984 h 16.9623 l -10.53852,-37.29031 c 2.49196,0.18665 4.99737,0.28036 7.50473,0.28068 5.32068,0 10.62292,-0.42048 15.79773,-1.25279 l -2.15261,38.26242 h 17.60499 l 2.44687,-43.02778 c 0.30228,-0.11579 5.02864,-1.81289 5.32825,-1.93179 l 8.4361,44.95957 h 16.96387 l -14.49842,-51.71801 c 11.57724,-8.44003 18.00573,-19.50282 18.0061,-30.98673 -3.2e-4,-0.39016 -0.008,-0.7803 -0.0232,-1.17032 0,0 28.64449,-31.47226 17.45867,-24.04648 -11.18583,7.42579 -15.42485,8.00847 -21.11193,10.39107 -9.41596,-18.46691 -24.14441,-32.08778 -64.25639,-30.87096 -29.64267,0.89923 -42.10734,12.68344 -47.70137,8.49836 -17.97458,-27.51887 11.26555,-91.65826 -42.88795,-92.46649 z"
       transform="scale(0.2645833)"
       />
    <g
       id="g922">
      <ellipse
         style="opacity:0.997;fill:none;fill-opacity:1;stroke:#000000;stroke-width:0.24"
         id="path916"
         cx="24.432987"
         cy="155.70552"
         rx="0.85183209"
         ry="0.58483905" />
      <ellipse
         style="opacity:0.997;fill:none;fill-opacity:1;stroke:#000000;stroke-width:0.24;stroke-opacity:1;stop-color:#000000"
         id="ellipse918"
         cx="31.454973"
         cy="158.27003"
         rx="0.85183209"
         ry="0.58483905" />
    </g>
  </g>
</svg>
